# xmcd
#
# Track frame offsets:
#	182
#	23512
#	49305
#	66527
#	81010
#	93105
#	107755
#	123385
#	137217
#	157797
#	169697
#	177690
#	192395
#	205242
#	212557
#	226230
#	241357
#	258815
#	271175
# Disc length: 3911 seconds
# Revision: 11
# Processed by: cddbd v1.5.1PL2 Copyright (c) Steve Scherf et al.
#
# Submitted via: libkcddb 0.31
#
DISCID=040f4513
DTITLE=Various Artist - Mississippi Blues, Library Of Congress Recordings 1940-1942
DYEAR=1900
DGENRE=Unknown
TTITLE0=Leroy Williams - Uncle Sam Done Called - Leroy Williams
TTITLE1=Water Coast Blues - HoneyBoy Edwards
TTITLE2=Army Blues - HoneyBoy Edwards
TTITLE3=Fiddlin' Joe Martin - Going To Fishing - Fiddlin' Joe Martin
TTITLE4=Spread My Raincoat Down - HoneyBoy Edwards
TTITLE5=Wind Howlin' Blues - HoneyBoy Edwards
TTITLE6=Willie Brown - Make Me A Pallet On The Floor - Willie Brown
TTITLE7=Roamin' and Ramblin' Blues - HoneyBoy Edwards
TTITLE8=Lucious Curtis - High Lonesome Hill - Lucious Curtis
TTITLE9=Willie Ford - Pay Day - Willie Ford
TTITLE10=Lucious Curtis - Train Blues - Lucious Curtis
TTITLE11=Lucious Curtis - Lonesome Highway Blues - Lucious Curtis
TTITLE12=Lucious Curtis - Mississippi River Blues - Lucious Curtis
TTITLE13=Lucious Curtis - Stagolee - Lucious Curtis
TTITLE14=Lucious Curtis - Farmin' Man Blues - Lucious Curtis
TTITLE15=Willie Ford - Santa Field Blues - Willie Ford
TTITLE16=Willie Ford - Sto' Gallery Blues - Willie Ford
TTITLE17=Lucious Curtis - Rubber Ball Blues - Lucious Curtis
TTITLE18=Willie Blackwell - Junior's A Jap Girl's Christmas For His SantaClaus - Willie Blackwell
EXTD=
EXTT0=
EXTT1=
EXTT2=
EXTT3=
EXTT4=
EXTT5=
EXTT6=
EXTT7=
EXTT8=
EXTT9=
EXTT10=
EXTT11=
EXTT12=
EXTT13=
EXTT14=
EXTT15=
EXTT16=
EXTT17=
EXTT18=
PLAYORDER=
